<svg xmlns="http://www.w3.org/2000/svg" width="20" height="20" fill="none" viewBox="0 0 24 24"><path fill="#25D366" d="M12.004 2.003a9.99 9.99 0 0 0-8.47 15.36l-1.13 4.13a1 1 0 0 0 1.22 1.22l4.13-1.13a9.99 9.99 0 1 0 4.25-19.58Zm0 18.01a8.01 8.01 0 0 1-4.09-1.13l-.29-.17-2.45.67.67-2.45-.17-.29A8.01 8.01 0 1 1 12.004 20.013Zm4.36-5.62c-.24-.12-1.41-.7-1.63-.78-.22-.08-.38-.12-.54.12-.16.24-.62.78-.76.94-.14.16-.28.18-.52.06-.24-.12-1.01-.37-1.92-1.18-.71-.63-1.19-1.41-1.33-1.65-.14-.24-.01-.37.11-.49.12-.12.24-.28.36-.42.12-.14.16-.24.24-.4.08-.16.04-.3-.02-.42-.06-.12-.54-1.3-.74-1.78-.2-.48-.4-.41-.54-.42-.14-.01-.3-.01-.46-.01-.16 0-.42.06-.64.3-.22.24-.86.84-.86 2.05 0 1.21.88 2.38 1 2.54.12.16 1.73 2.65 4.2 3.61.59.2 1.05.32 1.41.41.59.14 1.13.12 1.56.07.48-.06 1.41-.58 1.61-1.14.2-.56.2-1.04.14-1.14-.06-.1-.22-.16-.46-.28Z"/></svg>
